<?xml version="1.0" encoding="utf-8"?>
<!-- Generator: Adobe Illustrator 26.5.0, SVG Export Plug-In . SVG Version: 6.00 Build 0)  -->
<!DOCTYPE svg PUBLIC "-//W3C//DTD SVG 1.1//EN" "http://www.w3.org/Graphics/SVG/1.1/DTD/svg11.dtd" [
	<!ENTITY ns_extend "http://ns.adobe.com/Extensibility/1.0/">
	<!ENTITY ns_ai "http://ns.adobe.com/AdobeIllustrator/10.0/">
	<!ENTITY ns_graphs "http://ns.adobe.com/Graphs/1.0/">
	<!ENTITY ns_vars "http://ns.adobe.com/Variables/1.0/">
	<!ENTITY ns_imrep "http://ns.adobe.com/ImageReplacement/1.0/">
	<!ENTITY ns_sfw "http://ns.adobe.com/SaveForWeb/1.0/">
	<!ENTITY ns_custom "http://ns.adobe.com/GenericCustomNamespace/1.0/">
	<!ENTITY ns_adobe_xpath "http://ns.adobe.com/XPath/1.0/">
]>
<svg version="1.1" id="a" xmlns:x="&ns_extend;" xmlns:i="&ns_ai;" xmlns:graph="&ns_graphs;"
	 xmlns="http://www.w3.org/2000/svg" xmlns:xlink="http://www.w3.org/1999/xlink" x="0px" y="0px" viewBox="0 0 363.4 61.8"
	 style="enable-background:new 0 0 363.4 61.8;" xml:space="preserve">
<style type="text/css">
	.st0{fill-rule:evenodd;clip-rule:evenodd;fill:#000001;}
	.st1{fill-rule:evenodd;clip-rule:evenodd;fill:#00FF66;}
</style>
<metadata>
	<sfw  xmlns="&ns_sfw;">
		<slices></slices>
		<sliceSourceBounds  bottomLeftOrigin="true" height="61.7" width="359.9" x="0" y="0"></sliceSourceBounds>
	</sfw>
</metadata>
<path class="st0" d="M284.5,61.8h9.1l18.5-47.3c-1.7-0.1-3.6-0.1-5.3-0.1c-3.4,0-3.8-0.5-4.3,0.9c-1,2.6-1.9,5.3-2.8,7.8l-4.3,11.7
	c-0.4,1-0.7,3.4-1.9,3.8l-0.8-1.3c-0.2-0.5-0.4-1-0.6-1.6l-3.3-9.1c-0.8-2-3.7-11.2-4.6-12.2c-0.9-0.4-7.5-0.2-9-0.1
	c0.2,1.2,10.2,26.4,11.4,29.5c0.6,1.5,2,4.6,2.3,5.9C289.3,51.3,284.7,59.4,284.5,61.8L284.5,61.8L284.5,61.8z M18.6,49.1
	c-3.6,0-6.9-0.7-9.6-2s-5-3.2-6.6-5.6C0.8,39.1,0,36.2,0,32.8v-1.9h8.8v1.9c0,2.8,0.9,5,2.6,6.4c1.8,1.4,4.1,2.1,7.2,2.1
	s5.3-0.6,6.9-1.8s2.3-2.8,2.3-4.7c0-1.3-0.4-2.4-1.1-3.2s-1.8-1.5-3.2-2s-3.1-1-5.2-1.5l-1.5-0.3c-3.2-0.7-6-1.6-8.3-2.7
	C6,24,4.2,22.6,2.9,20.8c-1.2-1.8-1.9-4.1-1.9-7s0.7-5.3,2.1-7.4s3.3-3.6,5.8-4.7C11.4,0.6,14.4,0,17.8,0s6.4,0.6,9,1.7
	s4.7,2.9,6.2,5.1c1.5,2.3,2.3,5.1,2.3,8.5v2h-8.8v-2c0-1.8-0.4-3.2-1-4.4c-0.7-1.1-1.7-1.9-3-2.4s-2.9-0.8-4.7-0.8
	c-2.7,0-4.7,0.5-6,1.5s-1.9,2.4-1.9,4.1c0,1.2,0.3,2.2,0.9,3s1.5,1.5,2.7,2s2.8,1,4.7,1.4l1.5,0.3c3.4,0.7,6.3,1.6,8.8,2.8
	c2.5,1.1,4.4,2.6,5.8,4.5c1.4,1.8,2.1,4.2,2.1,7.1s-0.7,5.4-2.2,7.6s-3.5,3.9-6.2,5.1S22.2,49.2,18.6,49.1L18.6,49.1L18.6,49.1z
	 M57.3,49.1c-3.3,0-6.3-0.7-8.8-2.1c-2.5-1.4-4.5-3.4-5.9-6c-1.4-2.6-2.1-5.6-2.1-9.1V31c0-3.5,0.7-6.6,2.1-9.1
	c1.4-2.6,3.3-4.6,5.9-6s5.4-2.1,8.8-2.1s6.1,0.7,8.6,2.2s4.3,3.5,5.7,6.1c1.3,2.6,2,5.6,2,9v2.9H49.1c0.1,2.3,0.9,4.2,2.6,5.6
	c1.6,1.4,3.6,2.2,5.9,2.2s4.1-0.5,5.3-1.5c1.1-1,2-2.2,2.6-3.4l6.9,3.6c-0.6,1.2-1.5,2.4-2.7,3.8c-1.2,1.4-2.8,2.5-4.8,3.5
	C62.9,48.6,60.4,49.1,57.3,49.1L57.3,49.1L57.3,49.1z M49.2,27.6h15.6c-0.2-1.9-1-3.5-2.3-4.7c-1.4-1.2-3.2-1.8-5.4-1.8
	s-4.1,0.6-5.5,1.8C50.3,24.1,49.5,25.6,49.2,27.6L49.2,27.6L49.2,27.6z M85.9,48.2L75.2,14.7h9L92,42h1.2l7.8-27.3h9L99.4,48.2H85.9
	L85.9,48.2z M128.9,49.1c-3.3,0-6.3-0.7-8.8-2.1c-2.5-1.4-4.5-3.4-5.9-6c-1.4-2.6-2.1-5.6-2.1-9.1V31c0-3.5,0.7-6.6,2.1-9.1
	c1.4-2.6,3.3-4.6,5.9-6c2.5-1.4,5.4-2.1,8.8-2.1s6.1,0.7,8.6,2.2c2.4,1.5,4.3,3.5,5.7,6.1c1.4,2.6,2,5.6,2,9v2.9h-24.4
	c0.1,2.3,0.9,4.2,2.6,5.6c1.6,1.4,3.6,2.2,5.9,2.2c2.3,0,4.1-0.5,5.3-1.5s2-2.2,2.6-3.4l6.9,3.6c-0.6,1.2-1.5,2.4-2.7,3.8
	c-1.2,1.4-2.8,2.5-4.8,3.5C134.5,48.6,131.9,49.1,128.9,49.1L128.9,49.1L128.9,49.1z M120.7,27.6h15.6c-0.2-1.9-1-3.5-2.3-4.7
	s-3.2-1.8-5.4-1.8s-4.1,0.6-5.5,1.8S121,25.6,120.7,27.6L120.7,27.6L120.7,27.6z M151.4,48.2V14.7h8.4v4.4h1.2
	c0.5-1.2,1.6-2.3,3-3.3c1.5-1.1,3.7-1.6,6.8-1.6c2.6,0,4.9,0.6,6.9,1.8s3.5,2.8,4.6,4.9c1.1,2.1,1.6,4.5,1.6,7.3v20h-8.5V28.9
	c0-2.5-0.6-4.4-1.9-5.7s-3-1.9-5.3-1.9c-2.6,0-4.6,0.9-6.1,2.6s-2.2,4.1-2.2,7.2v17L151.4,48.2L151.4,48.2z M241,22
	c0,0,0.1,0,0.1,0.1c0.1,0.4,6.4,4.3,6.6,4.4c2.1-2.9,3.9-5.4,8.6-5.8c4.7-0.3,8.2,1.8,7.9,6.5c-4.7,0.7-12.4,0.9-16.5,2.2
	c-11.6,3.8-9.5,18.3,3.2,19.5c3.8,0.3,8.6-0.4,10.9-3.2c1.8-2.1,0.7-2.4,2.5-2.4V48l8.3,0.1c0.3-1.5,0.1-15.8,0.1-18.6
	c0-6.8-1.2-10.7-5.3-13.4c-4.1-2.7-10-3.5-15.5-2C248.1,15.1,243.1,18.5,241,22L241,22L241,22z M264.3,33.3c0,9.6-11,9.8-13.8,7.4
	c-2-1.7-2.4-5.3,3.4-6.2C256.6,34.1,261.6,33.4,264.3,33.3L264.3,33.3L264.3,33.3z M200.1,48c3.9,0.5,10.6,0.1,14.7,0.1
	c4.9,0,8.7-0.3,12.7-2.3c8.6-4.3,8.6-13.2,8.6-21.4c0-10.7-0.9-17.6-8.4-21.6c-3.5-1.9-8.1-2.4-12.6-2.4c-3.9,0-11.5-0.4-14.9,0.1
	L200.1,48L200.1,48L200.1,48z M209.1,39.8v-31c2.9-0.7,11.2-0.1,13.5,1.1c3.3,1.7,4.5,5.3,4.5,10c0,7.6,1.2,15.9-4.5,18.9
	C220.2,40,212.1,40.5,209.1,39.8L209.1,39.8L209.1,39.8z"/>
<path class="st1" d="M330.1,12.1c-10.3,1.8-7.8,17.1,2.4,15.6C342.9,26.2,340.4,10.3,330.1,12.1z"/>
<path class="st1" d="M350.2,23.7c-10.5,2.5-6.1,18,3.8,15.3c3.8-1,6.9-4.7,5.7-9.6C358.9,25.8,355.1,22.5,350.2,23.7L350.2,23.7z"/>
<path class="st1" d="M329.7,35c-10.3,2.4-6.8,17.5,3.2,15.5c3.8-0.8,7.1-4.6,6.1-9.5C338.3,37.2,334.4,33.9,329.7,35z"/>
</svg>
