<?xml version="1.0" encoding="UTF-8"?><svg id="a" xmlns="http://www.w3.org/2000/svg" viewBox="0 0 344.67 117.21"><path d="M217.87,78.67c-10.31,1.83-7.76,17.09,2.42,15.61,10.38-1.5,7.88-17.44-2.42-15.61Z" style="fill:#0f6; fill-rule:evenodd;"/><path d="M238,90.23c-10.47,2.51-6.15,17.95,3.77,15.3,3.77-1.01,6.87-4.72,5.71-9.64-.83-3.51-4.61-6.83-9.48-5.66Z" style="fill:#0f6; fill-rule:evenodd;"/><path d="M217.49,101.58c-10.34,2.43-6.75,17.45,3.25,15.45,3.8-.76,7.12-4.61,6.1-9.45-.8-3.78-4.66-7.1-9.35-6Z" style="fill:#0f6; fill-rule:evenodd;"/><path d="M18.56,116.95c-3.64,0-6.86-.65-9.65-1.96-2.79-1.3-4.97-3.17-6.55-5.6-1.57-2.43-2.36-5.35-2.36-8.77v-1.89H8.77v1.89c0,2.83,.88,4.96,2.63,6.38,1.75,1.42,4.14,2.13,7.15,2.13s5.34-.61,6.85-1.82c1.51-1.21,2.26-2.77,2.26-4.66,0-1.3-.37-2.36-1.11-3.17-.74-.81-1.82-1.47-3.24-1.99-1.42-.52-3.14-1-5.16-1.45l-1.55-.34c-3.24-.72-6.02-1.63-8.33-2.73-2.32-1.1-4.09-2.55-5.33-4.35-1.24-1.8-1.86-4.14-1.86-7.02s.69-5.34,2.06-7.39c1.37-2.05,3.31-3.62,5.8-4.72,2.5-1.1,5.43-1.65,8.81-1.65s6.38,.57,9.01,1.72c2.63,1.15,4.7,2.86,6.21,5.13,1.51,2.27,2.26,5.12,2.26,8.54v2.02h-8.77v-2.02c0-1.8-.35-3.25-1.05-4.35-.7-1.1-1.7-1.91-3-2.43-1.3-.52-2.86-.78-4.66-.78-2.7,0-4.69,.51-5.97,1.52-1.28,1.01-1.92,2.4-1.92,4.15,0,1.17,.3,2.16,.91,2.97,.61,.81,1.52,1.48,2.73,2.02,1.21,.54,2.77,1.01,4.66,1.42l1.55,.34c3.37,.72,6.31,1.64,8.81,2.77,2.5,1.12,4.44,2.61,5.84,4.45,1.39,1.84,2.09,4.21,2.09,7.09s-.73,5.41-2.19,7.59c-1.46,2.18-3.53,3.89-6.21,5.13-2.68,1.24-5.84,1.86-9.48,1.86h0Zm0-67.83c-3.64,0-6.86-.65-9.65-1.96-2.79-1.3-4.97-3.17-6.55-5.6C.79,39.14,0,36.21,0,32.79v-1.89H8.77v1.89c0,2.83,.88,4.96,2.63,6.38,1.75,1.42,4.14,2.13,7.15,2.13s5.34-.61,6.85-1.82c1.51-1.21,2.26-2.77,2.26-4.66,0-1.3-.37-2.36-1.11-3.17-.74-.81-1.82-1.47-3.24-1.99-1.42-.52-3.14-1-5.16-1.45l-1.55-.34c-3.24-.72-6.02-1.63-8.33-2.73-2.32-1.1-4.09-2.55-5.33-4.35-1.24-1.8-1.86-4.14-1.86-7.02s.69-5.34,2.06-7.39c1.37-2.05,3.31-3.62,5.8-4.72,2.5-1.1,5.43-1.65,8.81-1.65s6.38,.57,9.01,1.72c2.63,1.15,4.7,2.86,6.21,5.13,1.51,2.27,2.26,5.12,2.26,8.54v2.02h-8.77v-2.02c0-1.8-.35-3.25-1.05-4.35-.7-1.1-1.7-1.91-3-2.43-1.3-.52-2.86-.78-4.66-.78-2.7,0-4.69,.51-5.97,1.52-1.28,1.01-1.92,2.4-1.92,4.15,0,1.17,.3,2.16,.91,2.97,.61,.81,1.52,1.48,2.73,2.02,1.21,.54,2.77,1.01,4.66,1.42l1.55,.34c3.37,.72,6.31,1.64,8.81,2.77,2.5,1.12,4.44,2.61,5.84,4.45,1.39,1.84,2.09,4.21,2.09,7.09s-.73,5.41-2.19,7.59c-1.46,2.18-3.53,3.89-6.21,5.13-2.68,1.24-5.84,1.86-9.48,1.86h0Zm38.78,0c-3.33,0-6.26-.71-8.81-2.13-2.54-1.42-4.52-3.42-5.94-6.01-1.42-2.59-2.13-5.63-2.13-9.14v-.81c0-3.51,.7-6.56,2.09-9.14,1.39-2.59,3.35-4.59,5.87-6.01,2.52-1.42,5.44-2.13,8.77-2.13s6.14,.73,8.57,2.19c2.43,1.46,4.32,3.49,5.67,6.07,1.35,2.59,2.02,5.59,2.02,9.01v2.9h-24.36c.09,2.29,.94,4.16,2.56,5.6,1.62,1.44,3.6,2.16,5.94,2.16s4.14-.52,5.26-1.55c1.12-1.03,1.98-2.18,2.56-3.44l6.95,3.64c-.63,1.17-1.54,2.44-2.73,3.81-1.19,1.37-2.78,2.54-4.76,3.51-1.98,.97-4.5,1.45-7.56,1.45h0Zm-8.16-21.53h15.65c-.18-1.93-.96-3.49-2.33-4.66-1.37-1.17-3.16-1.75-5.36-1.75s-4.12,.58-5.47,1.75-2.18,2.72-2.5,4.66h0Zm36.69,20.58l-10.66-33.47h9.04l7.76,27.26h1.21l7.76-27.26h9.04l-10.66,33.47h-13.5Zm43.03,.94c-3.33,0-6.26-.71-8.81-2.13-2.54-1.42-4.52-3.42-5.94-6.01-1.42-2.59-2.13-5.63-2.13-9.14v-.81c0-3.51,.7-6.56,2.09-9.14,1.39-2.59,3.35-4.59,5.87-6.01,2.52-1.42,5.44-2.13,8.77-2.13s6.14,.73,8.57,2.19c2.43,1.46,4.32,3.49,5.67,6.07,1.35,2.59,2.02,5.59,2.02,9.01v2.9h-24.36c.09,2.29,.94,4.16,2.56,5.6,1.62,1.44,3.6,2.16,5.94,2.16s4.14-.52,5.26-1.55c1.12-1.03,1.98-2.18,2.56-3.44l6.95,3.64c-.63,1.17-1.54,2.44-2.73,3.81-1.19,1.37-2.78,2.54-4.76,3.51-1.98,.97-4.5,1.45-7.56,1.45h0Zm-8.16-21.53h15.65c-.18-1.93-.96-3.49-2.33-4.66-1.37-1.17-3.16-1.75-5.36-1.75s-4.12,.58-5.47,1.75-2.18,2.72-2.5,4.66h0Zm30.62,20.58V14.71h8.37v4.39h1.21c.54-1.17,1.55-2.28,3.04-3.34,1.48-1.06,3.73-1.59,6.75-1.59,2.61,0,4.89,.6,6.85,1.79,1.96,1.19,3.47,2.83,4.55,4.93,1.08,2.09,1.62,4.53,1.62,7.32v19.97h-8.5V28.88c0-2.52-.62-4.41-1.86-5.67-1.24-1.26-3-1.89-5.3-1.89-2.61,0-4.63,.87-6.07,2.6-1.44,1.73-2.16,4.15-2.16,7.25v17h-8.5Zm89.65-26.16s.1,.05,.12,.13c.1,.39,6.41,4.28,6.63,4.4,2.15-2.93,3.9-5.42,8.57-5.75,4.71-.33,8.24,1.82,7.93,6.48-4.74,.66-12.36,.86-16.49,2.2-11.57,3.76-9.51,18.34,3.21,19.51,3.82,.35,8.58-.4,10.93-3.19,1.8-2.14,.73-2.36,2.53-2.44v4.71s8.32,.06,8.32,.06c.32-1.52,.12-15.83,.12-18.59,0-6.75-1.2-10.73-5.32-13.42-4.08-2.66-10.03-3.5-15.5-2.02-3.94,1.06-8.93,4.45-11.06,7.92h0Zm23.29,11.34c-.05,9.6-10.97,9.8-13.82,7.38-2-1.7-2.42-5.34,3.36-6.21,2.78-.42,7.74-1.15,10.47-1.17h0Zm-64.17,14.71c3.89,.46,10.55,.06,14.7,.06,4.94,0,8.67-.28,12.68-2.27,8.59-4.27,8.59-13.2,8.59-21.42,0-10.72-.89-17.59-8.39-21.62-3.54-1.9-8.06-2.36-12.64-2.36-3.85,0-11.52-.44-14.91,.08l-.03,47.52h0Zm8.99-8.22V8.78c2.86-.67,11.21-.12,13.51,1.07,3.28,1.71,4.47,5.26,4.47,9.98,0,7.56,1.24,15.91-4.53,18.92-2.41,1.25-10.46,1.73-13.45,1.1h0Zm109.66-4.52c-1.14,.44-2.39,1.36-3.43,2.02-1.04,.66-2.5,1.73-3.44,2.1,.86,2.19,4.82,5.76,7.1,7.04,3.24,1.82,7.43,2.81,11.85,2.55,5.77-.34,11.49-2.97,13.29-8.15,.67-1.93,.71-4.4,.12-6.32-1.09-3.49-4.41-5.09-8.22-6.09-3.05-.81-9.94-1.22-11.96-2.36-2.99-1.69-1.66-6.8,5.33-5.6,4.54,.78,6.23,3.45,8.71,5.51l6.07-4.66c-.81-1.56-5.28-4.93-7.78-6.12-3.38-1.6-8.01-2.31-12.15-1.52-11.49,2.19-11.42,12.68-7.85,16.17,6.86,6.7,20.14,2.67,19.94,8.1-.07,1.81-1.82,3.02-3.46,3.54-5.5,1.73-12.51-1.66-14.11-6.21h0Zm-34.3,26.43c.25-2.31,4.78-10.41,4.44-11.89-.31-1.34-1.74-4.44-2.32-5.94-1.19-3.08-11.23-28.35-11.43-29.53,1.51-.13,8.07-.29,9.02,.1,.89,.95,3.88,10.17,4.63,12.17l3.31,9.07c.21,.58,.39,1.06,.58,1.6l.76,1.26c1.16-.35,1.53-2.73,1.9-3.75l4.29-11.73c.92-2.59,1.84-5.27,2.83-7.85,.52-1.36,.91-.9,4.32-.9,1.68,0,3.54-.08,5.27,.06l-18.5,47.32h-9.1ZM54.6,116.01c-2.2,0-3.99-.69-5.36-2.06-1.37-1.37-2.06-3.21-2.06-5.5v-18.89h-8.37v-7.02h8.37v-10.39h8.5v10.39h9.18v7.02h-9.18v17.41c0,1.35,.63,2.02,1.89,2.02h6.48v7.02h-9.45Zm29.16,.54c-2.61,0-4.89-.6-6.85-1.79-1.96-1.19-3.48-2.85-4.55-4.96-1.08-2.11-1.62-4.54-1.62-7.29v-19.97h8.5v19.3c0,2.52,.62,4.41,1.86,5.67,1.24,1.26,3,1.89,5.3,1.89,2.61,0,4.63-.87,6.07-2.6,1.44-1.73,2.16-4.15,2.16-7.25v-17h8.5v33.47h-8.37v-4.39h-1.21c-.54,1.12-1.55,2.23-3.04,3.31-1.48,1.08-3.73,1.62-6.75,1.62h0Zm40.76,.41c-2.65,0-5.14-.66-7.46-1.99-2.32-1.33-4.17-3.27-5.57-5.84-1.39-2.56-2.09-5.67-2.09-9.31v-1.08c0-3.64,.7-6.75,2.09-9.31,1.39-2.56,3.24-4.51,5.53-5.84,2.29-1.33,4.79-1.99,7.49-1.99,2.02,0,3.72,.24,5.09,.71,1.37,.47,2.49,1.07,3.34,1.79,.85,.72,1.51,1.48,1.96,2.29h1.21v-17.61h8.5v47.23h-8.37v-4.05h-1.21c-.76,1.26-1.95,2.41-3.54,3.44-1.6,1.03-3.93,1.55-6.98,1.55h0Zm2.56-7.42c2.61,0,4.79-.84,6.55-2.53,1.75-1.69,2.63-4.15,2.63-7.39v-.67c0-3.24-.87-5.7-2.6-7.39-1.73-1.69-3.93-2.53-6.58-2.53s-4.79,.84-6.55,2.53c-1.75,1.69-2.63,4.15-2.63,7.39v.67c0,3.24,.88,5.7,2.63,7.39,1.75,1.69,3.94,2.53,6.55,2.53h0Zm25.44,6.48v-33.47h8.5v33.47h-8.5Zm4.25-37.38c-1.53,0-2.82-.49-3.88-1.48-1.06-.99-1.59-2.29-1.59-3.91s.53-2.92,1.59-3.91c1.06-.99,2.35-1.48,3.88-1.48s2.88,.49,3.91,1.48c1.03,.99,1.55,2.29,1.55,3.91s-.52,2.92-1.55,3.91c-1.03,.99-2.34,1.48-3.91,1.48h0Zm28.08,38.33c-3.33,0-6.32-.67-8.97-2.02-2.65-1.35-4.75-3.31-6.28-5.87-1.53-2.56-2.29-5.65-2.29-9.24v-1.08c0-3.6,.76-6.68,2.29-9.24,1.53-2.56,3.62-4.52,6.28-5.87,2.65-1.35,5.65-2.02,8.97-2.02s6.32,.67,8.97,2.02c2.65,1.35,4.75,3.31,6.28,5.87,1.53,2.56,2.29,5.65,2.29,9.24v1.08c0,3.6-.76,6.68-2.29,9.24-1.53,2.56-3.62,4.52-6.28,5.87s-5.65,2.02-8.97,2.02h0Zm0-7.56c2.61,0,4.77-.84,6.48-2.53,1.71-1.69,2.56-4.1,2.56-7.25v-.67c0-3.15-.84-5.57-2.53-7.25s-3.86-2.53-6.51-2.53-4.77,.84-6.48,2.53-2.56,4.1-2.56,7.25v.67c0,3.15,.85,5.57,2.56,7.25s3.87,2.53,6.48,2.53Z" style="fill:#fff; fill-rule:evenodd;"/></svg>