<svg width="32" height="32" viewBox="0 0 32 32" fill="none" xmlns="http://www.w3.org/2000/svg">
<g clip-path="url(#clip0_62_146)">
<path d="M14.1562 0.44375C9.45 1.00625 5.20625 3.7125 2.6875 7.75C1.55625 9.5625 0.75625 11.825 0.46875 14.0187C0.34375 14.9937 0.34375 17.0062 0.46875 17.9812C0.925 21.4563 2.4625 24.5938 4.9375 27.0625C6.95625 29.0875 9.4875 30.525 12.2 31.1875C13.6562 31.5437 14.1313 31.5938 16.0312 31.5938C17.5813 31.5938 17.875 31.575 18.5813 31.45C20.2688 31.1437 21.7125 30.6625 23.1562 29.9125C24.7063 29.1125 25.85 28.2812 27.0625 27.0625C28.3375 25.7937 29.1562 24.6562 30.0063 22.9688C30.8062 21.3812 31.2938 19.7812 31.5312 17.9812C31.6562 17.0062 31.6562 14.9937 31.5312 14.0187C31.075 10.5437 29.5312 7.40625 27.0625 4.9375C25.7563 3.625 24.4875 2.725 22.7812 1.9C21.3875 1.225 20.2125 0.85 18.5813 0.55625C17.9875 0.449999 17.5375 0.418749 16.25 0.4C15.375 0.393749 14.4313 0.4125 14.1562 0.44375ZM21.5688 6.7C23.9188 7.34375 25.2125 8.8625 25.5562 11.3937C25.65 12.0562 25.65 19.9437 25.5562 20.6062C25.2125 23.1375 23.925 24.65 21.5688 25.3L20.9688 25.4688H16H11.0312L10.4313 25.3C8.0875 24.6562 6.75625 23.1 6.4375 20.625C6.3625 20.0125 6.3625 11.9875 6.4375 11.375C6.7875 8.70625 8.325 7.075 10.9625 6.5875C11.3063 6.525 12.4875 6.5125 16.1875 6.51875L20.9688 6.53125L21.5688 6.7Z" fill="#00FF66"/>
<path d="M11.9062 8.25005C10.1875 8.36255 9.125 8.97505 8.5375 10.2001C8.09375 11.1438 8.09375 11.1376 8.09375 16.0626C8.1 20.4251 8.1 20.4751 8.2375 20.9688C8.4375 21.6938 8.7125 22.2001 9.1375 22.6626C9.55 23.1001 10.1125 23.4188 10.7812 23.5938C11.4438 23.7688 13.1875 23.8251 16.875 23.7938C20.8625 23.7626 21.0813 23.7438 21.975 23.3126C22.8875 22.8751 23.525 22.0063 23.7937 20.8438C23.9 20.3813 23.9062 19.9938 23.9062 16.0001C23.9062 12.0063 23.9 11.6188 23.7937 11.1563C23.525 9.9938 22.8875 9.12505 21.975 8.68755C21.0625 8.25005 20.9 8.23755 16.5625 8.2188C14.45 8.2063 12.3563 8.22505 11.9062 8.25005ZM21.5938 10.1188C21.6938 10.1751 21.8438 10.3251 21.925 10.4438C22.05 10.6188 22.0688 10.7188 22.05 11.0188C22.025 11.3063 21.9875 11.4125 21.8375 11.5688C21.4938 11.9375 21.1 12.0251 20.6875 11.8125C19.875 11.4001 19.9875 10.2688 20.8688 9.9938C21.075 9.9313 21.35 9.9813 21.5938 10.1188ZM17.2188 11.1C19.1938 11.6313 20.625 13.1813 20.9688 15.1563C21.0875 15.8438 21.0875 16.1563 20.9688 16.8438C20.625 18.8001 19.2312 20.3313 17.275 20.8876C16.6313 21.0688 15.4313 21.0813 14.8125 20.9126C12.7812 20.3563 11.3813 18.8313 11.025 16.8063C10.5438 14.05 12.4813 11.4376 15.3438 10.9751C15.6937 10.9251 16.8375 10.9938 17.2188 11.1Z" fill="#00FF66"/>
<path d="M15.3438 12.7501C14.575 12.9064 13.85 13.3689 13.3563 14.0126C12.4813 15.1689 12.475 16.8063 13.3438 17.9688C14.4438 19.4438 16.5375 19.7438 17.9875 18.6438C19.7438 17.3001 19.7438 14.7001 17.9875 13.3564C17.2438 12.7939 16.2563 12.5689 15.3438 12.7501Z" fill="#00FF66"/>
</g>
<defs>
<clipPath id="clip0_62_146">
<rect width="32" height="32" fill="white"/>
</clipPath>
</defs>
</svg>
