<svg width="32" height="32" viewBox="0 0 32 32" fill="none" xmlns="http://www.w3.org/2000/svg">
<g clip-path="url(#clip0_62_151)">
<path d="M13.9375 0.100036C7.54998 0.918786 2.24373 5.54379 0.531235 11.7813C0.162485 13.1375 0.0499848 13.9313 0.0187348 15.55C-0.0187652 17.1438 0.0374848 17.9313 0.287485 19.1625C1.11248 23.3375 3.62498 27.05 7.21873 29.4125C9.28748 30.7688 11.5562 31.6 14.0625 31.9125C15.0125 32.0313 17.0125 32.025 18 31.9063C22.675 31.325 26.85 28.7063 29.4562 24.7188C30.7687 22.7125 31.6062 20.4063 31.9062 18C32.0312 16.9875 32.0312 15.0125 31.9062 14C31.3312 9.35004 28.725 5.18129 24.7812 2.58754C22.725 1.23754 20.4375 0.400036 18 0.0937861C17.0437 -0.0249639 14.8687 -0.0187139 13.9375 0.100036ZM23.6187 9.87504C23.8312 10.0938 23.9062 10.3875 23.85 10.7688C23.7187 11.575 21.1687 23.4438 21.0812 23.6438C20.95 23.9438 20.6687 24.1875 20.45 24.1875C20.1375 24.1813 19.7812 23.9563 17.8562 22.5375C16.7937 21.7563 15.8875 21.1 15.8375 21.0813C15.7812 21.0625 15.3562 21.4313 14.6812 22.0688C13.5562 23.15 13.5312 23.1688 13.25 23.25C13.0812 23.3 13.075 23.2938 13.1 23.0688C13.1125 22.9438 13.1687 22.1813 13.2187 21.375C13.2687 20.5688 13.3312 19.7625 13.35 19.5813L13.3812 19.2563L17.1312 15.875C19.5187 13.7125 20.875 12.45 20.875 12.375C20.875 12.2125 20.675 12.1625 20.425 12.2688C20.3125 12.3188 18.1625 13.6563 15.65 15.2375L11.0812 18.1125L9.49373 17.6188C8.61873 17.3438 7.67498 17.05 7.39998 16.9625C6.56873 16.7125 6.35623 16.3813 6.77498 16.0125C6.89998 15.9063 7.34998 15.6875 7.88123 15.4813C8.37498 15.2875 11.9437 13.9063 15.8125 12.4125C21.3062 10.2938 22.9062 9.69379 23.1375 9.69379C23.3812 9.68754 23.4562 9.71879 23.6187 9.87504Z" fill="#00FF66"/>
</g>
<defs>
<clipPath id="clip0_62_151">
<rect width="32" height="32" fill="white"/>
</clipPath>
</defs>
</svg>
